<?xml version="1.0" encoding="UTF-8" standalone="no" ?>
<!DOCTYPE svg PUBLIC "-//W3C//DTD SVG 1.1//EN" "http://www.w3.org/Graphics/SVG/1.1/DTD/svg11.dtd">
<svg xmlns="http://www.w3.org/2000/svg" xmlns:xlink="http://www.w3.org/1999/xlink" version="1.1" width="6400" height="6400" viewBox="0 0 6400 6400" xml:space="preserve">
<desc>Created with Fabric.js 5.3.0</desc>
<defs>
</defs>
<g transform="matrix(72.9653081564 0 0 72.9653081564 3200 3200)" id="Yudm91zVEGzxMq_PdBZhc"  >
<path style="stroke: none; stroke-width: 1; stroke-dasharray: none; stroke-linecap: butt; stroke-dashoffset: 0; stroke-linejoin: miter; stroke-miterlimit: 4; fill: rgb(76,158,152); fill-rule: nonzero; opacity: 1;"  transform=" translate(-40.05, -40.05)" d="M 69.4 0 L 10.6 0 C 9 0 7.6 1.4 7.6 3.1 L 7.6 77 C 7.6 78.7 9 80.1 10.7 80.1 L 53.8 80.1 C 54.599999999999994 80.1 55.4 79.8 56 79.19999999999999 L 71.6 63.59999999999999 C 72.19999999999999 62.999999999999986 72.5 62.29999999999999 72.5 61.399999999999984 L 72.5 3.1 C 72.4 1.4 71 0 69.4 0 z" stroke-linecap="round" />
</g>
<g transform="matrix(72.9653081564 0 0 72.9653081564 3200 3200)" id="H8ImvgqglI7kqSaZZCyDt"  >
<path style="stroke: none; stroke-width: 1; stroke-dasharray: none; stroke-linecap: butt; stroke-dashoffset: 0; stroke-linejoin: miter; stroke-miterlimit: 4; fill: rgb(255,255,255); fill-rule: nonzero; opacity: 1;"  transform=" translate(-40, -40)" d="M 13.7 73.9 L 51.7 73.9 L 51.7 59.3 L 66.3 59.3 L 66.3 6.1 L 13.7 6.1 L 13.7 73.9 z" stroke-linecap="round" />
</g>
<g transform="matrix(72.9653081564 0 0 72.9653081564 3192.7034691844 2324.4163021237)" id="wSRO06PEE4TtNY6WGCGVx"  >
<path style="stroke: none; stroke-width: 1; stroke-dasharray: none; stroke-linecap: butt; stroke-dashoffset: 0; stroke-linejoin: miter; stroke-miterlimit: 4; fill: rgb(76,158,152); fill-rule: nonzero; opacity: 1;"  transform=" translate(-39.95, -28.05)" d="M 21.7 17.9 C 21.7 16.799999999999997 22.599999999999998 15.899999999999999 23.7 15.899999999999999 L 56.2 15.899999999999999 C 57.300000000000004 15.899999999999999 58.2 16.799999999999997 58.2 17.9 C 58.2 19 57.300000000000004 19.9 56.2 19.9 L 23.7 19.9 C 22.6 19.9 21.7 19 21.7 17.9 z M 23.7 30.1 L 56.2 30.1 C 57.300000000000004 30.1 58.2 29.200000000000003 58.2 28.1 C 58.2 27 57.300000000000004 26.1 56.2 26.1 L 23.7 26.1 C 22.599999999999998 26.1 21.7 27 21.7 28.1 C 21.7 29.200000000000003 22.6 30.1 23.7 30.1 z M 23.7 40.2 L 56.2 40.2 C 57.300000000000004 40.2 58.2 39.300000000000004 58.2 38.2 C 58.2 37.1 57.300000000000004 36.2 56.2 36.2 L 23.7 36.2 C 22.599999999999998 36.2 21.7 37.1 21.7 38.2 C 21.7 39.300000000000004 22.6 40.2 23.7 40.2 z" stroke-linecap="round" />
</g>
</svg>